<?xml version="1.0" encoding="UTF-8" standalone="no"?>
<svg
   xmlns:dc="http://purl.org/dc/elements/1.1/"
   xmlns:cc="http://creativecommons.org/ns#"
   xmlns:rdf="http://www.w3.org/1999/02/22-rdf-syntax-ns#"
   xmlns:svg="http://www.w3.org/2000/svg"
   xmlns="http://www.w3.org/2000/svg"
   xmlns:sodipodi="http://sodipodi.sourceforge.net/DTD/sodipodi-0.dtd"
   xmlns:inkscape="http://www.inkscape.org/namespaces/inkscape"
   width="189.43236mm"
   height="104.20282mm"
   viewBox="0 0 189.43236 104.20282"
   version="1.1"
   id="svg8"
   inkscape:version="1.0.2 (e86c870879, 2021-01-15)"
   sodipodi:docname="street-epistemology-logo-wide.svg"
   inkscape:export-filename="/home/sjn/src/introducing-se/dist/media/street-epistemology-logo.png"
   inkscape:export-xdpi="40.23"
   inkscape:export-ydpi="40.23">
  <defs
     id="defs2">
    <pattern
       id="EMFhbasepattern"
       patternUnits="userSpaceOnUse"
       width="6"
       height="6"
       x="0"
       y="0" />
  </defs>
  <sodipodi:namedview
     id="base"
     pagecolor="#ffffff"
     bordercolor="#666666"
     borderopacity="1.0"
     inkscape:pageopacity="0.0"
     inkscape:pageshadow="2"
     inkscape:zoom="1.6006373"
     inkscape:cx="357.98241"
     inkscape:cy="167.15222"
     inkscape:document-units="mm"
     inkscape:current-layer="g851"
     inkscape:document-rotation="0"
     showgrid="false"
     inkscape:window-width="1854"
     inkscape:window-height="1016"
     inkscape:window-x="0"
     inkscape:window-y="0"
     inkscape:window-maximized="1"
     fit-margin-top="0"
     fit-margin-left="0"
     fit-margin-right="0"
     fit-margin-bottom="0" />
  <metadata
     id="metadata5">
    <rdf:RDF>
      <cc:Work
         rdf:about="">
        <dc:format>image/svg+xml</dc:format>
        <dc:type
           rdf:resource="http://purl.org/dc/dcmitype/StillImage" />
        <dc:title />
      </cc:Work>
    </rdf:RDF>
  </metadata>
  <g
     inkscape:label="Layer 1"
     inkscape:groupmode="layer"
     id="layer1"
     transform="translate(-0.04086552,-0.02057353)">
    <g
       id="g851"
       transform="matrix(0.71428571,0,0,0.71428571,27.073442,14.891996)">
      <path
         style="fill:#000000;fill-opacity:1;stroke:none;stroke-width:0.264583px;stroke-linecap:butt;stroke-linejoin:miter;stroke-opacity:1"
         d="M 66.933424,0.02173543 C 55.160839,-0.04304247 41.696129,2.6056324 31.100985,6.7515583 18.060808,11.854238 0.04086552,25.150346 0.04086552,45.044311 c 0,19.893968 18.82107448,31.776871 18.82107448,31.776871 0,0 -0.245465,0.9555 -6.860048,7.570081 -6.6145835,6.614578 -9.9818191,8.160742 -9.9818191,8.160742 l 2.433443,8.882665 c 0,0 8.8516481,0.94378 24.8015881,-3.357942 14.272783,-3.849386 22.344372,-8.714193 22.344372,-8.714193 0,0 5.45166,1.066086 15.472957,1.066086 9.777082,0 15.433164,-1.656231 15.433164,-1.656231 0,0 1.263864,0.0471 1.240235,1.287259 -0.02363,1.240242 -0.850078,1.146185 -0.850078,1.146185 v 1.866035 c 0,0 0.80313,0.224499 0.814938,1.25212 0.0118,1.02762 -0.711067,1.23145 -0.711067,1.23145 v 0.622699 c 0,0 0.356489,1.09851 1.667599,1.90169 1.311103,0.80321 2.457215,1.1343 2.457215,1.1343 0,0 2.586704,5.102462 7.677565,5.007972 5.090868,-0.0945 7.949386,-4.984722 7.949386,-4.984722 0,0 1.13355,-0.23616 2.50372,-1.39371 1.37016,-1.157548 1.70119,-1.936831 1.70119,-1.936831 v -2.433442 c 0,0 -0.96866,-0.212539 -1.01596,-1.228349 -0.0473,-1.015809 1.08676,-1.322916 1.08676,-1.322916 v -2.055173 c 0,0 8.17359,1.512054 16.01659,1.512054 7.84301,0 14.88281,-1.03973 14.88281,-1.03973 0,0 9.13918,5.241089 22.43584,8.782407 13.29665,3.541322 24.78919,3.340882 24.78919,3.340882 l 2.40553,-8.886795 c 0,0 -4.67715,-2.873435 -9.62163,-7.684285 -4.94449,-4.81085 -7.41712,-8.018116 -7.41712,-8.018116 0,0 18.95492,-10.307307 18.95492,-32.040938 0,-21.733632 -24.66709,-44.79623047 -66.89566,-44.79623047 -14.13115,0 -27.787451,4.82554477 -27.787451,4.82554477 0,0 -6.803718,-2.6461269 -20.032884,-4.34702197 -2.480469,-0.3189129 -5.107064,-0.4780439 -7.823811,-0.4929929 z"
         id="path23-6" />
      <path
         style="fill:#ffcc00;fill-opacity:1;stroke:none;stroke-width:0.264583px;stroke-linecap:butt;stroke-linejoin:miter;stroke-opacity:1"
         d="m 94.814408,16.604186 a 28.731474,28.731474 0 0 1 28.731582,28.73158 28.731474,28.731474 0 0 1 -28.731582,28.73158 28.731474,28.731474 0 0 1 -28.73158,-28.73158 28.731474,28.731474 0 0 1 28.73158,-28.73158 z"
         id="path846" />
      <path
         style="fill:#ffffff;fill-opacity:1;stroke:none;stroke-width:0.264583px;stroke-linecap:butt;stroke-linejoin:miter;stroke-opacity:1"
         d="m 121.42673,8.5860703 c 10.60394,0 17.82493,0.761092 29.46642,4.5439087 9.59897,3.119115 30.1346,13.229646 30.1346,31.537611 0,18.30796 -22.51749,30.201256 -22.51749,30.201256 0,0 1.40313,2.405557 5.81308,7.750947 4.40994,5.34539 8.55245,9.220626 8.55245,9.220626 0,0 -9.21051,-1.091719 -18.57509,-4.409549 -10.35702,-3.66945 -15.10089,-6.815605 -15.10089,-6.815605 0,0 -6.18024,1.336352 -17.00465,1.336352 -10.82442,0 -14.80013,-1.569929 -14.80013,-1.569929 0,0 24.2158,-13.263864 24.05435,-34.243904 -0.13545,-17.602893 -11.48978,-29.006776 -24.58093,-35.979716 0,0 7.95073,-1.5719977 14.55828,-1.5719977 z"
         id="path844" />
      <path
         style="fill:#ffffff;fill-opacity:1;stroke:none;stroke-width:0.264583px;stroke-linecap:butt;stroke-linejoin:miter;stroke-opacity:1"
         d="m 68.087356,8.5860703 c 6.607548,0 14.558285,1.5719977 14.558285,1.5719977 -13.091146,6.97294 -24.445473,18.376818 -24.580929,35.979716 -0.161441,20.98004 24.054347,34.243904 24.054347,34.243904 0,0 -3.975713,1.569929 -14.80013,1.569929 -10.824418,0 -17.004646,-1.336352 -17.004646,-1.336352 0,0 -4.74387,3.146155 -15.100887,6.815605 -9.36458,3.31783 -18.575094,4.409549 -18.575094,4.409549 0,0 4.142505,-3.875236 8.55245,-9.220626 4.409948,-5.34539 5.813081,-7.750947 5.813081,-7.750947 0,0 -22.517488,-11.893296 -22.517488,-30.201256 0,-18.307965 20.535629,-28.418496 30.134593,-31.537611 C 50.26243,9.3471623 57.483417,8.5860703 68.087356,8.5860703 Z"
         id="path842" />
      <path
         style="fill:#ffffff;fill-opacity:1;stroke:none;stroke-width:0.259076px;stroke-linecap:butt;stroke-linejoin:miter;stroke-opacity:1"
         d="m 104.34609,93.912129 c 0,0 -3.06892,2.64576 -8.051995,3.047359 -4.98308,0.4016 -10.555144,-0.850079 -10.555144,-0.850079 l 0.09067,-1.39371 c 0,0 4.914772,1.34627 9.694004,1.27537 4.779225,-0.0709 8.822465,-2.07894 8.822465,-2.07894 z"
         id="path858" />
      <path
         style="fill:#ffffff;fill-opacity:1;stroke:none;stroke-width:0.259076px;stroke-linecap:butt;stroke-linejoin:miter;stroke-opacity:1"
         d="m 104.31388,89.736159 c 0,0 -3.06892,2.64576 -8.051985,3.04736 -4.98308,0.40159 -10.555152,-0.8506 -10.555152,-0.8506 l 0.09067,-1.39371 c 0,0 4.915269,1.34679 9.694502,1.27589 4.779225,-0.0709 8.821965,-2.07894 8.821965,-2.07894 z"
         id="path856" />
      <path
         style="fill:#ffffff;fill-opacity:1;stroke:none;stroke-width:0.259076px;stroke-linecap:butt;stroke-linejoin:miter;stroke-opacity:1"
         d="m 104.31388,85.526589 c 0,0 -3.06892,2.64576 -8.051985,3.04736 -4.98308,0.4016 -10.555152,-0.85007 -10.555152,-0.85007 l 0.09067,-1.39423 c 0,0 4.915269,1.34679 9.694502,1.27589 4.779225,-0.0709 8.821965,-2.07895 8.821965,-2.07895 z"
         id="path854" />
      <path
         style="fill:#ffffff;fill-opacity:1;stroke:none;stroke-width:0.259076px;stroke-linecap:butt;stroke-linejoin:miter;stroke-opacity:1"
         d="m 104.36938,81.212649 c 0,0 -3.06892,2.64627 -8.051995,3.04787 -4.98308,0.4016 -10.555149,-0.85059 -10.555149,-0.85059 l 0.09068,-1.39372 c 0,0 4.914776,1.34628 9.693999,1.27538 4.779225,-0.0709 8.822465,-2.07894 8.822465,-2.07894 z"
         id="path852" />
      <path
         style="fill:#000000;fill-opacity:1;stroke:none;stroke-width:0.264583px;stroke-linecap:butt;stroke-linejoin:miter;stroke-opacity:1"
         d="m 94.699685,51.966886 a 6.898065,6.898065 0 0 0 -6.854878,6.898285 6.898065,6.898065 0 0 0 6.897769,6.897772 6.898065,6.898065 0 0 0 6.898284,-6.897772 6.898065,6.898065 0 0 0 -6.898284,-6.898285 6.898065,6.898065 0 0 0 -0.04289,0 z"
         id="path850" />
      <path
         style="fill:#000000;fill-opacity:1;stroke:none;stroke-width:0.264583px;stroke-linecap:butt;stroke-linejoin:miter;stroke-opacity:1"
         d="m 95.048501,24.650207 c -6.013559,0 -13.363525,3.738211 -13.363525,13.970206 h 9.989055 c 0,0 -0.0021,-1.599538 0.310058,-2.210718 0.31247,-0.611179 0.925967,-1.740461 2.362647,-1.740463 1.436669,0 2.806546,0.878041 2.806546,2.414841 0,1.536809 -1.660713,2.755773 -3.073712,3.373954 -1.36226,0.595979 -2.355445,0.851897 -3.792019,2.522325 -1.436574,1.670442 -1.152385,7.834665 -1.152382,7.834665 0,0 2.037488,-1.169437 5.545397,-1.169437 3.507906,0 5.278746,1.236101 5.278746,1.236101 0,0 -0.10014,-2.054661 0.300758,-2.722832 1.42228,-2.37046 7.58351,-2.18513 7.58351,-10.907861 0,-8.084904 -6.78151,-12.600781 -12.795079,-12.600781 z"
         id="path848" />
    </g>
  </g>
</svg>
