<?xml version="1.0" encoding="UTF-8" standalone="no"?>
<svg
   xml:space="preserve"
   sodipodi:docname="introducing-se-card-2022-05-back.svg"
   inkscape:version="1.2 (1:1.2.1+202207142221+cd75a1ee6d)"
   id="svg5"
   version="1.1"
   viewBox="0 0 55 85"
   height="85.000008mm"
   width="54.999996mm"
   xmlns:inkscape="http://www.inkscape.org/namespaces/inkscape"
   xmlns:sodipodi="http://sodipodi.sourceforge.net/DTD/sodipodi-0.dtd"
   xmlns:xlink="http://www.w3.org/1999/xlink"
   xmlns="http://www.w3.org/2000/svg"
   xmlns:svg="http://www.w3.org/2000/svg"
   xmlns:rdf="http://www.w3.org/1999/02/22-rdf-syntax-ns#"
   xmlns:cc="http://creativecommons.org/ns#"
   xmlns:dc="http://purl.org/dc/elements/1.1/"><title
     id="title34742">Street Epistemology reminder</title><sodipodi:namedview
     id="namedview7"
     pagecolor="#ffffff"
     bordercolor="#666666"
     borderopacity="1.0"
     inkscape:pageshadow="2"
     inkscape:pageopacity="0.0"
     inkscape:pagecheckerboard="false"
     inkscape:document-units="mm"
     showgrid="false"
     inkscape:zoom="2.0301417"
     inkscape:cx="112.55372"
     inkscape:cy="227.81661"
     inkscape:window-width="1504"
     inkscape:window-height="1282"
     inkscape:window-x="26"
     inkscape:window-y="23"
     inkscape:window-maximized="0"
     inkscape:current-layer="layer1"
     units="mm"
     inkscape:snap-text-baseline="false"
     inkscape:showpageshadow="true"
     inkscape:document-rotation="0"
     inkscape:deskcolor="#d1d1d1"
     showguides="true"
     inkscape:guide-bbox="true"><sodipodi:guide
       position="-26.08,80.000007"
       orientation="0,1"
       id="guide342"
       inkscape:locked="false"
       inkscape:label=""
       inkscape:color="rgb(0,134,229)" /><sodipodi:guide
       position="2.2117315,5.0000076"
       orientation="0,1"
       id="guide344"
       inkscape:locked="false"
       inkscape:label=""
       inkscape:color="rgb(0,134,229)" /><sodipodi:guide
       position="5,48.137816"
       orientation="-1,0"
       id="guide346"
       inkscape:locked="false"
       inkscape:label=""
       inkscape:color="rgb(0,134,229)" /><sodipodi:guide
       position="50,54.035766"
       orientation="-1,0"
       id="guide348"
       inkscape:locked="false"
       inkscape:label=""
       inkscape:color="rgb(0,134,229)" /><sodipodi:guide
       position="10,31.36552"
       orientation="-1,0"
       id="guide470"
       inkscape:locked="false"
       inkscape:label=""
       inkscape:color="rgb(0,134,229)" /><sodipodi:guide
       position="45,34.498806"
       orientation="-1,0"
       id="guide472"
       inkscape:locked="false"
       inkscape:label=""
       inkscape:color="rgb(0,134,229)" /><sodipodi:guide
       position="70.959718,75.000007"
       orientation="0,1"
       id="guide694"
       inkscape:locked="false"
       inkscape:label=""
       inkscape:color="rgb(0,134,229)" /><sodipodi:guide
       position="86.626149,10.000008"
       orientation="0,1"
       id="guide696"
       inkscape:locked="false"
       inkscape:label=""
       inkscape:color="rgb(0,134,229)" /></sodipodi:namedview><defs
     id="defs2"><inkscape:perspective
       sodipodi:type="inkscape:persp3d"
       inkscape:vp_x="0 : 42.5 : 1"
       inkscape:vp_y="0 : 1000 : 0"
       inkscape:vp_z="55 : 42.5 : 1"
       inkscape:persp3d-origin="27.5 : 28.333333 : 1"
       id="perspective2024" /><color-profile
       name="sRGB"
       xlink:href="file:///usr/share/color/icc/colord/sRGB.icc"
       id="color-profile1227" /><defs
       id="defs1512" /><pattern
       id="EMFhbasepattern"
       patternUnits="userSpaceOnUse"
       width="6"
       height="6"
       x="0"
       y="0" /><defs
       id="defs1512-3" /><defs
       id="defs1512-9" /></defs><g
     inkscape:label="Lag 1"
     inkscape:groupmode="layer"
     id="layer1"><rect
       style="fill:#ffffff;stroke:none;stroke-width:1.87932"
       id="rect267-3"
       width="75"
       height="105"
       x="-10.000002"
       y="-9.9999962" /><rect
       style="fill:#ffffff;stroke-width:1.448;stroke:none"
       id="rect267"
       width="55"
       height="85"
       x="-1.9073486e-06"
       y="3.8146973e-06" /><g
       id="g601"
       transform="matrix(1.0227449,0,0,1.0227449,-0.59965427,1.0854154)"><g
         id="g1581"
         transform="matrix(0.39869996,0,0,0.39869996,7.5397441,34.937091)"><rect
           style="fill:#ffffff;stroke:none;stroke-width:1.07463;stroke-linecap:round;stroke-linejoin:round;stroke-opacity:0.616936;paint-order:markers stroke fill"
           id="rect1590"
           width="30.22534"
           height="30.22534"
           x="34.887337"
           y="34.887337"
           ry="0.13866535"
           rx="0.13866535" /><image
           width="100"
           height="100"
           preserveAspectRatio="none"
           style="image-rendering:optimizeQuality"
           xlink:href="share-this-card-qr-bit.ly_3y3kiie.png"
           id="image396-0"
           x="0"
           y="-0.0043649673" /><text
           xml:space="preserve"
           style="font-weight:300;font-size:3.175px;line-height:0;font-family:Montserrat;-inkscape-font-specification:'Montserrat, Light';text-align:center;text-anchor:middle;white-space:pre;inline-size:17.6333;display:inline;stroke-width:0.264583"
           x="75.498779"
           y="36.967304"
           id="text278"
           transform="matrix(2.4523728,0,0,2.4523728,-135.1255,-44.874355)"><tspan
             x="75.498779"
             y="36.967304"
             id="tspan1306"><tspan
               style="font-weight:600;line-height:0.85;-inkscape-font-specification:'Montserrat, Semi-Bold'"
               id="tspan1302">Learn</tspan><tspan
               style="line-height:0.85"
               id="tspan1304">
</tspan></tspan><tspan
             x="75.498779"
             y="39.586678"
             id="tspan1314"><tspan
               style="font-size:2.46944px;line-height:0.85"
               id="tspan1308">more, </tspan><tspan
               style="font-size:2.46944px;line-height:0.85"
               id="tspan1310">&amp;</tspan><tspan
               style="line-height:0.8"
               id="tspan1312">
</tspan></tspan><tspan
             x="75.498779"
             y="42.602929"
             id="tspan1318"><tspan
               style="font-weight:600;line-height:1.1;-inkscape-font-specification:'Montserrat, Semi-Bold'"
               id="tspan1316">Share</tspan></tspan></text></g><text
         xml:space="preserve"
         style="font-style:normal;font-variant:normal;font-weight:bold;font-stretch:normal;font-size:3.01816px;line-height:1.25;font-family:Montserrat;-inkscape-font-specification:'Montserrat, Bold';font-variant-ligatures:normal;font-variant-caps:normal;font-variant-numeric:normal;font-variant-east-asian:normal;stroke-width:0.240308"
         x="14.053008"
         y="74.384712"
         id="text31550"><tspan
           sodipodi:role="line"
           id="tspan31548"
           style="font-style:normal;font-variant:normal;font-weight:bold;font-stretch:normal;font-size:3.01816px;font-family:Montserrat;-inkscape-font-specification:'Montserrat, Bold';font-variant-ligatures:normal;font-variant-caps:normal;font-variant-numeric:normal;font-variant-east-asian:normal;stroke-width:0.240308"
           x="14.053008"
           y="74.384712">INTRODUCING.SE</tspan></text></g><g
       id="g709"
       transform="matrix(0.99099806,0,0,0.99099806,0.24755309,1.856766)"><g
         inkscape:label="Layer 1"
         id="layer1-0"
         transform="matrix(0.19791561,0,0,0.19791561,8.7460994,6.7932126)"><path
           style="fill:#000000;fill-opacity:1;stroke:none;stroke-width:0.264583px;stroke-linecap:butt;stroke-linejoin:miter;stroke-opacity:1"
           d="M 66.933424,0.02173543 C 55.160839,-0.04304247 41.696129,2.6056324 31.100985,6.7515583 18.060808,11.854238 0.04086552,25.150346 0.04086552,45.044311 c 0,19.893968 18.82107448,31.776871 18.82107448,31.776871 0,0 -0.245465,0.9555 -6.860048,7.570081 -6.6145835,6.614578 -9.9818191,8.160742 -9.9818191,8.160742 l 2.433443,8.882665 c 0,0 8.8516481,0.94378 24.8015881,-3.357942 14.272783,-3.849386 22.344372,-8.714193 22.344372,-8.714193 0,0 5.45166,1.066086 15.472957,1.066086 9.777082,0 15.433164,-1.656231 15.433164,-1.656231 0,0 1.263864,0.0471 1.240235,1.287259 -0.02363,1.240242 -0.850078,1.146185 -0.850078,1.146185 v 1.866035 c 0,0 0.80313,0.224499 0.814938,1.25212 0.0118,1.02762 -0.711067,1.23145 -0.711067,1.23145 v 0.622699 c 0,0 0.356489,1.09851 1.667599,1.90169 1.311103,0.80321 2.457215,1.1343 2.457215,1.1343 0,0 2.586704,5.102462 7.677565,5.007972 5.090868,-0.0945 7.949386,-4.984722 7.949386,-4.984722 0,0 1.13355,-0.23616 2.50372,-1.39371 1.37016,-1.157548 1.70119,-1.936831 1.70119,-1.936831 v -2.433442 c 0,0 -0.96866,-0.212539 -1.01596,-1.228349 -0.0473,-1.015809 1.08676,-1.322916 1.08676,-1.322916 v -2.055173 c 0,0 8.17359,1.512054 16.01659,1.512054 7.84301,0 14.88281,-1.03973 14.88281,-1.03973 0,0 9.13918,5.241089 22.43584,8.782407 13.29665,3.541322 24.78919,3.340882 24.78919,3.340882 l 2.40553,-8.886795 c 0,0 -4.67715,-2.873435 -9.62163,-7.684285 -4.94449,-4.81085 -7.41712,-8.018116 -7.41712,-8.018116 0,0 18.95492,-10.307307 18.95492,-32.040938 0,-21.733632 -24.66709,-44.79623047 -66.89566,-44.79623047 -14.13115,0 -27.787451,4.82554477 -27.787451,4.82554477 0,0 -6.803718,-2.6461269 -20.032884,-4.34702197 -2.480469,-0.3189129 -5.107064,-0.4780439 -7.823811,-0.4929929 z"
           id="path23-6" /><path
           style="fill:#ffcc00;fill-opacity:1;stroke:none;stroke-width:0.264583px;stroke-linecap:butt;stroke-linejoin:miter;stroke-opacity:1"
           d="m 94.814408,16.604186 a 28.731474,28.731474 0 0 1 28.731582,28.73158 28.731474,28.731474 0 0 1 -28.731582,28.73158 28.731474,28.731474 0 0 1 -28.73158,-28.73158 28.731474,28.731474 0 0 1 28.73158,-28.73158 z"
           id="path846" /><path
           style="fill:#ffffff;fill-opacity:1;stroke:none;stroke-width:0.264583px;stroke-linecap:butt;stroke-linejoin:miter;stroke-opacity:1"
           d="m 121.42673,8.5860703 c 10.60394,0 17.82493,0.761092 29.46642,4.5439087 9.59897,3.119115 30.1346,13.229646 30.1346,31.537611 0,18.30796 -22.51749,30.201256 -22.51749,30.201256 0,0 1.40313,2.405557 5.81308,7.750947 4.40994,5.34539 8.55245,9.220626 8.55245,9.220626 0,0 -9.21051,-1.091719 -18.57509,-4.409549 -10.35702,-3.66945 -15.10089,-6.815605 -15.10089,-6.815605 0,0 -6.18024,1.336352 -17.00465,1.336352 -10.82442,0 -14.80013,-1.569929 -14.80013,-1.569929 0,0 24.2158,-13.263864 24.05435,-34.243904 -0.13545,-17.602893 -11.48978,-29.006776 -24.58093,-35.979716 0,0 7.95073,-1.5719977 14.55828,-1.5719977 z"
           id="path844" /><path
           style="fill:#ffffff;fill-opacity:1;stroke:none;stroke-width:0.264583px;stroke-linecap:butt;stroke-linejoin:miter;stroke-opacity:1"
           d="m 68.087356,8.5860703 c 6.607548,0 14.558285,1.5719977 14.558285,1.5719977 -13.091146,6.97294 -24.445473,18.376818 -24.580929,35.979716 -0.161441,20.98004 24.054347,34.243904 24.054347,34.243904 0,0 -3.975713,1.569929 -14.80013,1.569929 -10.824418,0 -17.004646,-1.336352 -17.004646,-1.336352 0,0 -4.74387,3.146155 -15.100887,6.815605 -9.36458,3.31783 -18.575094,4.409549 -18.575094,4.409549 0,0 4.142505,-3.875236 8.55245,-9.220626 4.409948,-5.34539 5.813081,-7.750947 5.813081,-7.750947 0,0 -22.517488,-11.893296 -22.517488,-30.201256 0,-18.307965 20.535629,-28.418496 30.134593,-31.537611 C 50.26243,9.3471623 57.483417,8.5860703 68.087356,8.5860703 Z"
           id="path842" /><path
           style="fill:#ffffff;fill-opacity:1;stroke:none;stroke-width:0.259076px;stroke-linecap:butt;stroke-linejoin:miter;stroke-opacity:1"
           d="m 104.34609,93.912129 c 0,0 -3.06892,2.64576 -8.051995,3.047359 -4.98308,0.4016 -10.555144,-0.850079 -10.555144,-0.850079 l 0.09067,-1.39371 c 0,0 4.914772,1.34627 9.694004,1.27537 4.779225,-0.0709 8.822465,-2.07894 8.822465,-2.07894 z"
           id="path858" /><path
           style="fill:#ffffff;fill-opacity:1;stroke:none;stroke-width:0.259076px;stroke-linecap:butt;stroke-linejoin:miter;stroke-opacity:1"
           d="m 104.31388,89.736159 c 0,0 -3.06892,2.64576 -8.051985,3.04736 -4.98308,0.40159 -10.555152,-0.8506 -10.555152,-0.8506 l 0.09067,-1.39371 c 0,0 4.915269,1.34679 9.694502,1.27589 4.779225,-0.0709 8.821965,-2.07894 8.821965,-2.07894 z"
           id="path856" /><path
           style="fill:#ffffff;fill-opacity:1;stroke:none;stroke-width:0.259076px;stroke-linecap:butt;stroke-linejoin:miter;stroke-opacity:1"
           d="m 104.31388,85.526589 c 0,0 -3.06892,2.64576 -8.051985,3.04736 -4.98308,0.4016 -10.555152,-0.85007 -10.555152,-0.85007 l 0.09067,-1.39423 c 0,0 4.915269,1.34679 9.694502,1.27589 4.779225,-0.0709 8.821965,-2.07895 8.821965,-2.07895 z"
           id="path854" /><path
           style="fill:#ffffff;fill-opacity:1;stroke:none;stroke-width:0.259076px;stroke-linecap:butt;stroke-linejoin:miter;stroke-opacity:1"
           d="m 104.36938,81.212649 c 0,0 -3.06892,2.64627 -8.051995,3.04787 -4.98308,0.4016 -10.555149,-0.85059 -10.555149,-0.85059 l 0.09068,-1.39372 c 0,0 4.914776,1.34628 9.693999,1.27538 4.779225,-0.0709 8.822465,-2.07894 8.822465,-2.07894 z"
           id="path852" /><path
           style="fill:#000000;fill-opacity:1;stroke:none;stroke-width:0.264583px;stroke-linecap:butt;stroke-linejoin:miter;stroke-opacity:1"
           d="m 94.699685,51.966886 a 6.898065,6.898065 0 0 0 -6.854878,6.898285 6.898065,6.898065 0 0 0 6.897769,6.897772 6.898065,6.898065 0 0 0 6.898284,-6.897772 6.898065,6.898065 0 0 0 -6.898284,-6.898285 6.898065,6.898065 0 0 0 -0.04289,0 z"
           id="path850" /><path
           style="fill:#000000;fill-opacity:1;stroke:none;stroke-width:0.264583px;stroke-linecap:butt;stroke-linejoin:miter;stroke-opacity:1"
           d="m 95.048501,24.650207 c -6.013559,0 -13.363525,3.738211 -13.363525,13.970206 h 9.989055 c 0,0 -0.0021,-1.599538 0.310058,-2.210718 0.31247,-0.611179 0.925967,-1.740461 2.362647,-1.740463 1.436669,0 2.806546,0.878041 2.806546,2.414841 0,1.536809 -1.660713,2.755773 -3.073712,3.373954 -1.36226,0.595979 -2.355445,0.851897 -3.792019,2.522325 -1.436574,1.670442 -1.152385,7.834665 -1.152382,7.834665 0,0 2.037488,-1.169437 5.545397,-1.169437 3.507906,0 5.278746,1.236101 5.278746,1.236101 0,0 -0.10014,-2.054661 0.300758,-2.722832 1.42228,-2.37046 7.58351,-2.18513 7.58351,-10.907861 0,-8.084904 -6.78151,-12.600781 -12.795079,-12.600781 z"
           id="path848" /></g><text
         xml:space="preserve"
         style="font-style:normal;font-variant:normal;font-weight:bold;font-stretch:normal;font-size:3.11485px;line-height:1.25;font-family:Montserrat;-inkscape-font-specification:'Montserrat, Bold';font-variant-ligatures:normal;font-variant-caps:normal;font-variant-numeric:normal;font-variant-east-asian:normal;stroke-width:0.212369"
         x="8.3701773"
         y="31.504189"
         id="text24540"><tspan
           sodipodi:role="line"
           id="tspan24538"
           style="font-style:normal;font-variant:normal;font-weight:bold;font-stretch:normal;font-size:3.11485px;font-family:Montserrat;-inkscape-font-specification:'Montserrat, Bold';font-variant-ligatures:normal;font-variant-caps:normal;font-variant-numeric:normal;font-variant-east-asian:normal;stroke-width:0.212369"
           x="8.3701773"
           y="31.504189">STREET EPISTEMOLOGY</tspan></text></g><g
       id="g472"
       transform="translate(-0.03939378,0.82648966)"><g
         id="g261"
         transform="matrix(0.03970641,0,0,0.03970641,29.332753,79.303913)">
	<circle
   fill="#ffffff"
   cx="36.944"
   cy="28.631001"
   r="29.105"
   id="circle255" />
	<g
   id="g259">
		<path
   d="m 37.443,-3.5 c 8.951,0 16.531,3.105 22.742,9.315 6.208,6.172 9.315,13.733 9.315,22.685 0,8.954 -3.049,16.457 -9.145,22.514 C 53.918,57.338 46.279,60.5 37.443,60.5 28.794,60.5 21.29,57.357 14.929,51.071 8.644,44.786 5.5,37.264 5.5,28.501 5.5,19.778 8.644,12.216 14.929,5.816 21.138,-0.395 28.643,-3.5 37.443,-3.5 Z m 0.114,5.772 c -7.276,0 -13.428,2.572 -18.457,7.715 -5.22,5.296 -7.829,11.467 -7.829,18.513 0,7.125 2.59,13.257 7.77,18.4 5.181,5.182 11.352,7.771 18.514,7.771 7.123,0 13.334,-2.609 18.629,-7.828 5.029,-4.876 7.543,-10.99 7.543,-18.343 0,-7.313 -2.553,-13.485 -7.656,-18.513 C 51.004,4.842 44.832,2.272 37.557,2.272 Z M 23.271,23.985 c 0.609,-3.924 2.189,-6.962 4.742,-9.114 2.552,-2.152 5.656,-3.228 9.314,-3.228 5.027,0 9.029,1.62 12,4.856 2.971,3.238 4.457,7.391 4.457,12.457 0,4.915 -1.543,9 -4.627,12.256 -3.088,3.256 -7.086,4.886 -12.002,4.886 -3.619,0 -6.743,-1.085 -9.371,-3.257 -2.629,-2.172 -4.209,-5.257 -4.743,-9.257 H 31.1 c 0.19,3.886 2.533,5.829 7.029,5.829 2.246,0 4.057,-0.972 5.428,-2.914 1.373,-1.942 2.059,-4.534 2.059,-7.771 0,-3.391 -0.629,-5.971 -1.885,-7.743 -1.258,-1.771 -3.066,-2.657 -5.43,-2.657 -4.268,0 -6.667,1.885 -7.2,5.656 h 2.343 l -6.342,6.343 -6.343,-6.343 z"
   id="path257" />
	</g>
</g><g
         id="g276"
         transform="matrix(0.03970641,0,0,0.03970641,22.76805,79.303953)">
	<circle
   fill="#ffffff"
   cx="37.785"
   cy="28.500999"
   r="28.836"
   id="circle272" />
	<path
   d="m 37.441,-3.5 c 8.951,0 16.572,3.125 22.857,9.372 3.008,3.009 5.295,6.448 6.857,10.314 1.561,3.867 2.344,7.971 2.344,12.314 0,4.381 -0.773,8.486 -2.314,12.313 -1.543,3.828 -3.82,7.21 -6.828,10.143 -3.123,3.085 -6.666,5.448 -10.629,7.086 -3.961,1.638 -8.057,2.457 -12.285,2.457 -4.228,0 -8.276,-0.808 -12.143,-2.429 C 21.434,56.452 17.967,54.109 14.9,51.043 11.833,47.977 9.5,44.519 7.9,40.671 6.3,36.823 5.5,32.767 5.5,28.5 5.5,24.271 6.309,20.205 7.928,16.3 9.547,12.395 11.9,8.9 14.985,5.814 21.08,-0.394 28.565,-3.5 37.441,-3.5 Z m 0.116,5.772 c -7.314,0 -13.467,2.553 -18.458,7.657 -2.515,2.553 -4.448,5.419 -5.8,8.6 -1.354,3.181 -2.029,6.505 -2.029,9.972 0,3.429 0.675,6.734 2.029,9.913 1.353,3.183 3.285,6.021 5.8,8.516 2.514,2.496 5.351,4.399 8.515,5.715 3.161,1.314 6.476,1.971 9.943,1.971 3.428,0 6.75,-0.665 9.973,-1.999 3.219,-1.335 6.121,-3.257 8.713,-5.771 4.99,-4.876 7.484,-10.99 7.484,-18.344 0,-3.543 -0.648,-6.895 -1.943,-10.057 C 60.491,15.283 58.604,12.465 56.13,9.987 50.984,4.844 44.795,2.272 37.557,2.272 Z m -0.401,20.915 -4.287,2.229 c -0.458,-0.951 -1.019,-1.619 -1.685,-2 -0.667,-0.38 -1.286,-0.571 -1.858,-0.571 -2.856,0 -4.286,1.885 -4.286,5.657 0,1.714 0.362,3.084 1.085,4.113 0.724,1.029 1.791,1.544 3.201,1.544 1.867,0 3.181,-0.915 3.944,-2.743 l 3.942,2 c -0.838,1.563 -2,2.791 -3.486,3.686 -1.484,0.896 -3.123,1.343 -4.914,1.343 -2.857,0 -5.163,-0.875 -6.915,-2.629 -1.752,-1.752 -2.628,-4.19 -2.628,-7.313 0,-3.048 0.886,-5.466 2.657,-7.257 1.771,-1.79 4.009,-2.686 6.715,-2.686 3.963,-0.002 6.8,1.541 8.515,4.627 z m 18.457,0 -4.229,2.229 c -0.457,-0.951 -1.02,-1.619 -1.686,-2 -0.668,-0.38 -1.307,-0.571 -1.914,-0.571 -2.857,0 -4.287,1.885 -4.287,5.657 0,1.714 0.363,3.084 1.086,4.113 0.723,1.029 1.789,1.544 3.201,1.544 1.865,0 3.18,-0.915 3.941,-2.743 l 4,2 c -0.875,1.563 -2.057,2.791 -3.541,3.686 -1.486,0.896 -3.105,1.343 -4.857,1.343 -2.896,0 -5.209,-0.875 -6.941,-2.629 -1.736,-1.752 -2.602,-4.19 -2.602,-7.313 0,-3.048 0.885,-5.466 2.658,-7.257 1.77,-1.79 4.008,-2.686 6.713,-2.686 3.962,-0.002 6.783,1.541 8.458,4.627 z"
   id="path274" />
</g><g
         id="g292"
         transform="matrix(0.03970641,0,0,0.03970641,26.050381,79.303913)">
	<circle
   fill="#ffffff"
   cx="37.637001"
   cy="28.806"
   r="28.275999"
   id="circle286" />
	<g
   id="g290">
		<path
   d="m 37.443,-3.5 c 8.988,0 16.57,3.085 22.742,9.257 6.208,6.21 9.315,13.791 9.315,22.743 0,8.991 -3.049,16.476 -9.145,22.456 C 53.879,57.319 46.242,60.5 37.443,60.5 28.794,60.5 21.29,57.356 14.929,51.07 8.644,44.784 5.5,37.262 5.5,28.5 5.5,19.739 8.644,12.158 14.929,5.758 21.101,-0.415 28.604,-3.5 37.443,-3.5 Z m 0.114,5.772 c -7.276,0 -13.428,2.553 -18.457,7.657 -5.22,5.334 -7.829,11.525 -7.829,18.572 0,7.086 2.59,13.22 7.77,18.398 5.181,5.182 11.352,7.771 18.514,7.771 7.123,0 13.334,-2.607 18.629,-7.828 5.029,-4.838 7.543,-10.952 7.543,-18.343 0,-7.276 -2.553,-13.465 -7.656,-18.571 C 50.967,4.824 44.795,2.272 37.557,2.272 Z m 8.572,18.285 V 33.642 H 42.473 V 49.184 H 32.529 V 33.643 H 28.873 V 20.557 c 0,-0.572 0.2,-1.057 0.599,-1.457 0.401,-0.399 0.887,-0.6 1.457,-0.6 h 13.144 c 0.533,0 1.01,0.2 1.428,0.6 0.417,0.4 0.628,0.886 0.628,1.457 z M 33.042,12.329 c 0,-3.008 1.485,-4.514 4.458,-4.514 2.973,0 4.457,1.504 4.457,4.514 0,2.971 -1.486,4.457 -4.457,4.457 -2.971,0 -4.458,-1.486 -4.458,-4.457 z"
   id="path288" />
	</g>
</g></g><text
       xml:space="preserve"
       style="font-style:normal;font-variant:normal;font-weight:normal;font-stretch:normal;font-size:3.175px;line-height:1.25;font-family:sans-serif;-inkscape-font-specification:'sans-serif, Normal';font-variant-ligatures:normal;font-variant-caps:normal;font-variant-numeric:normal;font-variant-east-asian:normal;stroke-width:0.264583"
       x="7.4074254"
       y="94.486427"
       id="text668"><tspan
         sodipodi:role="line"
         id="tspan666"
         style="font-style:normal;font-variant:normal;font-weight:normal;font-stretch:normal;font-size:3.175px;font-family:sans-serif;-inkscape-font-specification:'sans-serif, Normal';font-variant-ligatures:normal;font-variant-caps:normal;font-variant-numeric:normal;font-variant-east-asian:normal;stroke-width:0.264583"
         x="7.4074254"
         y="94.486427">Page size: 55.0x85.0 mm</tspan></text></g><metadata
     id="metadata34740"><rdf:RDF><cc:Work
         rdf:about=""><cc:license
           rdf:resource="http://creativecommons.org/licenses/by-sa/4.0/" /><dc:title>Street Epistemology reminder</dc:title><dc:date>2021-09-13</dc:date><dc:creator><cc:Agent><dc:title>Salve J. Nilsen</dc:title></cc:Agent></dc:creator><dc:source>https://github.com/sjn/introducing-se/</dc:source><dc:format>image/svg+xml</dc:format><dc:type
           rdf:resource="http://purl.org/dc/dcmitype/StillImage" /></cc:Work><cc:License
         rdf:about="http://creativecommons.org/licenses/by-sa/4.0/"><cc:permits
           rdf:resource="http://creativecommons.org/ns#Reproduction" /><cc:permits
           rdf:resource="http://creativecommons.org/ns#Distribution" /><cc:requires
           rdf:resource="http://creativecommons.org/ns#Notice" /><cc:requires
           rdf:resource="http://creativecommons.org/ns#Attribution" /><cc:permits
           rdf:resource="http://creativecommons.org/ns#DerivativeWorks" /><cc:requires
           rdf:resource="http://creativecommons.org/ns#ShareAlike" /></cc:License></rdf:RDF></metadata><g
     inkscape:groupmode="layer"
     inkscape:label="Printing Marks"
     id="printing-marks"
     sodipodi:insensitive="true"><g
       id="CropMarks"
       inkscape:label="CropMarks"><path
         style="fill:none;stroke:#000000;stroke-width:0.25"
         id="cropTL1"
         d="M -1.9073486e-06,-1.9999959970674237 L -1.9073486e-06,-11.999995055891043" /><path
         style="fill:none;stroke:#000000;stroke-width:0.25"
         id="cropTL2"
         d="M -2.0000017191133237,3.8146973e-06 L -12.000000777936943,3.8146973e-06" /><path
         style="fill:none;stroke:#000000;stroke-width:0.25"
         id="cropTR1"
         d="M 54.9999980926514,-1.9999959970674237 L 54.9999980926514,-11.999995055891043" /><path
         style="fill:none;stroke:#000000;stroke-width:0.25"
         id="cropTR2"
         d="M 56.99999790441613,3.8146973e-06 L 66.99999696323974,3.8146973e-06" /><path
         style="fill:none;stroke:#000000;stroke-width:0.25"
         id="cropBL1"
         d="M -1.9073486e-06,87.00000362646202 L -1.9073486e-06,97.00000268528564" /><path
         style="fill:none;stroke:#000000;stroke-width:0.25"
         id="cropBL2"
         d="M -2.0000017191133237,85.0000038146973 L -12.000000777936943,85.0000038146973" /><path
         style="fill:none;stroke:#000000;stroke-width:0.25"
         id="cropBR1"
         d="M 54.9999980926514,87.00000362646202 L 54.9999980926514,97.00000268528564" /><path
         style="fill:none;stroke:#000000;stroke-width:0.25"
         id="cropBR2"
         d="M 56.99999790441613,85.0000038146973 L 66.99999696323974,85.0000038146973" /></g><g
       inkscape:label="BleedMarks"
       id="BleedMarks"><path
         style="fill:none;stroke:#000000;stroke-dasharray:4, 2, 1, 2;stroke-dashoffset:0;stroke-miterlimit:4;stroke-width:0.25"
         id="bleedTL1"
         d="M -3.0000016249956856,-2.9999959029497854 L -3.0000016249956856,-12.999994961773403" /><path
         style="fill:none;stroke:#000000;stroke-dasharray:4, 2, 1, 2;stroke-dashoffset:0;stroke-miterlimit:4;stroke-width:0.25"
         id="bleedTL2"
         d="M -3.0000016249956856,-2.999995902949786 L -13.000000683819305,-2.999995902949786" /><path
         style="fill:none;stroke:#000000;stroke-dasharray:4, 2, 1, 2;stroke-dashoffset:0;stroke-miterlimit:4;stroke-width:0.25"
         id="bleedTR1"
         d="M 57.99999781029849,-2.9999959029497854 L 57.99999781029849,-12.999994961773403" /><path
         style="fill:none;stroke:#000000;stroke-dasharray:4, 2, 1, 2;stroke-dashoffset:0;stroke-miterlimit:4;stroke-width:0.25"
         id="bleedTR2"
         d="M 57.99999781029849,-2.999995902949786 L 67.9999968691221,-2.999995902949786" /><path
         style="fill:none;stroke:#000000;stroke-dasharray:4, 2, 1, 2;stroke-dashoffset:0;stroke-miterlimit:4;stroke-width:0.25"
         id="bleedBL1"
         d="M -3.0000016249956856,88.00000353234438 L -3.0000016249956856,98.000002591168" /><path
         style="fill:none;stroke:#000000;stroke-dasharray:4, 2, 1, 2;stroke-dashoffset:0;stroke-miterlimit:4;stroke-width:0.25"
         id="bleedBL2"
         d="M -3.0000016249956856,88.00000353234438 L -13.000000683819305,88.00000353234438" /><path
         style="fill:none;stroke:#000000;stroke-dasharray:4, 2, 1, 2;stroke-dashoffset:0;stroke-miterlimit:4;stroke-width:0.25"
         id="bleedBR1"
         d="M 57.99999781029849,88.00000353234438 L 57.99999781029849,98.000002591168" /><path
         style="fill:none;stroke:#000000;stroke-dasharray:4, 2, 1, 2;stroke-dashoffset:0;stroke-miterlimit:4;stroke-width:0.25"
         id="bleedBR2"
         d="M 57.99999781029849,88.00000353234438 L 67.9999968691221,88.00000353234438" /></g></g></svg>
