<?xml version="1.0" encoding="UTF-8" standalone="no"?>
<svg
   xml:space="preserve"
   sodipodi:docname="introducing-se-card-2022-06-back.svg"
   inkscape:version="1.2 (1:1.2.1+202207142221+cd75a1ee6d)"
   id="svg5"
   version="1.1"
   viewBox="0 0 55 85"
   height="85.000008mm"
   width="54.999996mm"
   xmlns:inkscape="http://www.inkscape.org/namespaces/inkscape"
   xmlns:sodipodi="http://sodipodi.sourceforge.net/DTD/sodipodi-0.dtd"
   xmlns:xlink="http://www.w3.org/1999/xlink"
   xmlns="http://www.w3.org/2000/svg"
   xmlns:svg="http://www.w3.org/2000/svg"
   xmlns:rdf="http://www.w3.org/1999/02/22-rdf-syntax-ns#"
   xmlns:cc="http://creativecommons.org/ns#"
   xmlns:dc="http://purl.org/dc/elements/1.1/"><title
     id="title34742">Street Epistemology reminder</title><sodipodi:namedview
     id="namedview7"
     pagecolor="#ffffff"
     bordercolor="#666666"
     borderopacity="1.0"
     inkscape:pageshadow="2"
     inkscape:pageopacity="0.0"
     inkscape:pagecheckerboard="false"
     inkscape:document-units="mm"
     showgrid="false"
     inkscape:zoom="4.1933197"
     inkscape:cx="92.289649"
     inkscape:cy="286.52717"
     inkscape:window-width="1856"
     inkscape:window-height="1016"
     inkscape:window-x="64"
     inkscape:window-y="27"
     inkscape:window-maximized="1"
     inkscape:current-layer="g1581"
     units="mm"
     inkscape:snap-text-baseline="false"
     inkscape:showpageshadow="true"
     inkscape:document-rotation="0"
     inkscape:deskcolor="#d1d1d1"
     showguides="true"
     inkscape:guide-bbox="true"><sodipodi:guide
       position="-26.08,80.000007"
       orientation="0,1"
       id="guide342"
       inkscape:locked="false"
       inkscape:label=""
       inkscape:color="rgb(0,134,229)" /><sodipodi:guide
       position="37.018945,4.4997693"
       orientation="0,1"
       id="guide344"
       inkscape:locked="false"
       inkscape:label=""
       inkscape:color="rgb(0,134,229)" /><sodipodi:guide
       position="5,48.137816"
       orientation="-1,0"
       id="guide346"
       inkscape:locked="false"
       inkscape:label=""
       inkscape:color="rgb(0,134,229)" /><sodipodi:guide
       position="50,54.035766"
       orientation="-1,0"
       id="guide348"
       inkscape:locked="false"
       inkscape:label=""
       inkscape:color="rgb(0,134,229)" /><sodipodi:guide
       position="10,31.36552"
       orientation="-1,0"
       id="guide470"
       inkscape:locked="false"
       inkscape:label=""
       inkscape:color="rgb(0,134,229)" /><sodipodi:guide
       position="45,34.498806"
       orientation="-1,0"
       id="guide472"
       inkscape:locked="false"
       inkscape:label=""
       inkscape:color="rgb(0,134,229)" /><sodipodi:guide
       position="70.959718,75.000007"
       orientation="0,1"
       id="guide694"
       inkscape:locked="false"
       inkscape:label=""
       inkscape:color="rgb(0,134,229)" /><sodipodi:guide
       position="86.626149,10.000008"
       orientation="0,1"
       id="guide696"
       inkscape:locked="false"
       inkscape:label=""
       inkscape:color="rgb(0,134,229)" /><sodipodi:guide
       position="45,3.0000076"
       orientation="0,1"
       id="guide28322"
       inkscape:label=""
       inkscape:locked="false"
       inkscape:color="rgb(0,0,255)" /><sodipodi:guide
       position="22.026563,8.0000076"
       orientation="0,1"
       id="guide91554"
       inkscape:label=""
       inkscape:locked="false"
       inkscape:color="rgb(0,0,255)" /></sodipodi:namedview><defs
     id="defs2"><inkscape:perspective
   sodipodi:type="inkscape:persp3d"
   inkscape:vp_x="0 : 42.5 : 1"
   inkscape:vp_y="0 : 1000 : 0"
   inkscape:vp_z="55 : 42.5 : 1"
   inkscape:persp3d-origin="27.5 : 28.333333 : 1"
   id="perspective2024" /><color-profile
   name="sRGB"
   xlink:href="file:///usr/share/color/icc/colord/sRGB.icc"
   id="color-profile460" /><defs
   id="defs1512" /><pattern
   id="EMFhbasepattern"
   patternUnits="userSpaceOnUse"
   width="6"
   height="6"
   x="0"
   y="0" /><defs
   id="defs1512-3" /><defs
   id="defs1512-9" />
	
	

	
	

	
	

		
	
		
	</defs><g
     inkscape:label="Lag 1"
     inkscape:groupmode="layer"
     id="layer1"><rect
       style="fill:#ffffff;stroke:none;stroke-width:1.87932"
       id="rect267-3"
       width="75"
       height="105"
       x="-10.000002"
       y="-9.9999962" /><rect
       style="fill:#ffffff;stroke:none;stroke-width:1.448"
       id="rect267"
       width="55"
       height="85"
       x="0.00049306836"
       y="-0.16399063" /><g
       id="g601"
       transform="matrix(1.0227449,0,0,1.0227449,-0.59965427,0.49320349)"><g
         id="g1581"
         transform="matrix(0.39869996,0,0,0.39869996,7.5397441,34.937091)"><rect
           style="fill:#ffffff;stroke:none;stroke-width:1.07463;stroke-linecap:round;stroke-linejoin:round;stroke-opacity:0.616936;paint-order:markers stroke fill"
           id="rect1590"
           width="30.22534"
           height="30.22534"
           x="34.887337"
           y="34.887337"
           ry="0.13866535"
           rx="0.13866535" /><image
           width="100"
           height="100"
           preserveAspectRatio="none"
           style="image-rendering:optimizeQuality"
           xlink:href="share-this-card-qr-bit.ly_3y3kiie.png"
           id="image396-0"
           x="0"
           y="-0.0043649673" /><text
           xml:space="preserve"
           style="font-weight:300;font-size:3.175px;line-height:0;font-family:Montserrat;-inkscape-font-specification:'Montserrat, Light';text-align:center;text-anchor:middle;white-space:pre;inline-size:17.6333;display:inline;stroke-width:0.264583"
           x="75.498779"
           y="36.967304"
           id="text278"
           transform="matrix(2.4523728,0,0,2.4523728,-135.1255,-44.874355)"><tspan
             x="75.498779"
             y="36.967304"
             id="tspan535"><tspan
               style="font-weight:600;line-height:0.85;-inkscape-font-specification:'Montserrat, Semi-Bold'"
               id="tspan531">Learn</tspan><tspan
               style="line-height:0.85"
               id="tspan533">
</tspan></tspan><tspan
             x="75.498779"
             y="39.586678"
             id="tspan541"><tspan
               style="font-size:2.61056px;line-height:0.85"
               id="tspan537">more &amp;</tspan><tspan
               style="line-height:0.8"
               id="tspan539">
</tspan></tspan><tspan
             x="75.498779"
             y="42.608414"
             id="tspan545"><tspan
               style="font-weight:600;line-height:1.1;-inkscape-font-specification:'Montserrat, Semi-Bold'"
               id="tspan543">Share</tspan></tspan></text></g><text
         xml:space="preserve"
         style="font-style:normal;font-variant:normal;font-weight:bold;font-stretch:normal;font-size:3.01816px;line-height:1.25;font-family:Montserrat;-inkscape-font-specification:'Montserrat, Bold';font-variant-ligatures:normal;font-variant-caps:normal;font-variant-numeric:normal;font-variant-east-asian:normal;stroke-width:0.240308"
         x="14.053008"
         y="74.384712"
         id="text31550"><tspan
           sodipodi:role="line"
           id="tspan31548"
           style="font-style:normal;font-variant:normal;font-weight:bold;font-stretch:normal;font-size:3.01816px;font-family:Montserrat;-inkscape-font-specification:'Montserrat, Bold';font-variant-ligatures:normal;font-variant-caps:normal;font-variant-numeric:normal;font-variant-east-asian:normal;stroke-width:0.240308"
           x="14.053008"
           y="74.384712">INTRODUCING.SE</tspan></text></g><g
       id="g709"
       transform="matrix(0.99099806,0,0,0.99099806,0.24755309,1.856766)"><g
         inkscape:label="Layer 1"
         id="layer1-0"
         transform="matrix(0.19791561,0,0,0.19791561,8.7460994,6.7932126)"><path
           style="fill:#000000;fill-opacity:1;stroke:none;stroke-width:0.264583px;stroke-linecap:butt;stroke-linejoin:miter;stroke-opacity:1"
           d="M 66.933424,0.02173543 C 55.160839,-0.04304247 41.696129,2.6056324 31.100985,6.7515583 18.060808,11.854238 0.04086552,25.150346 0.04086552,45.044311 c 0,19.893968 18.82107448,31.776871 18.82107448,31.776871 0,0 -0.245465,0.9555 -6.860048,7.570081 -6.6145835,6.614578 -9.9818191,8.160742 -9.9818191,8.160742 l 2.433443,8.882665 c 0,0 8.8516481,0.94378 24.8015881,-3.357942 14.272783,-3.849386 22.344372,-8.714193 22.344372,-8.714193 0,0 5.45166,1.066086 15.472957,1.066086 9.777082,0 15.433164,-1.656231 15.433164,-1.656231 0,0 1.263864,0.0471 1.240235,1.287259 -0.02363,1.240242 -0.850078,1.146185 -0.850078,1.146185 v 1.866035 c 0,0 0.80313,0.224499 0.814938,1.25212 0.0118,1.02762 -0.711067,1.23145 -0.711067,1.23145 v 0.622699 c 0,0 0.356489,1.09851 1.667599,1.90169 1.311103,0.80321 2.457215,1.1343 2.457215,1.1343 0,0 2.586704,5.102462 7.677565,5.007972 5.090868,-0.0945 7.949386,-4.984722 7.949386,-4.984722 0,0 1.13355,-0.23616 2.50372,-1.39371 1.37016,-1.157548 1.70119,-1.936831 1.70119,-1.936831 v -2.433442 c 0,0 -0.96866,-0.212539 -1.01596,-1.228349 -0.0473,-1.015809 1.08676,-1.322916 1.08676,-1.322916 v -2.055173 c 0,0 8.17359,1.512054 16.01659,1.512054 7.84301,0 14.88281,-1.03973 14.88281,-1.03973 0,0 9.13918,5.241089 22.43584,8.782407 13.29665,3.541322 24.78919,3.340882 24.78919,3.340882 l 2.40553,-8.886795 c 0,0 -4.67715,-2.873435 -9.62163,-7.684285 -4.94449,-4.81085 -7.41712,-8.018116 -7.41712,-8.018116 0,0 18.95492,-10.307307 18.95492,-32.040938 0,-21.733632 -24.66709,-44.79623047 -66.89566,-44.79623047 -14.13115,0 -27.787451,4.82554477 -27.787451,4.82554477 0,0 -6.803718,-2.6461269 -20.032884,-4.34702197 -2.480469,-0.3189129 -5.107064,-0.4780439 -7.823811,-0.4929929 z"
           id="path23-6" /><path
           style="fill:#ffcc00;fill-opacity:1;stroke:none;stroke-width:0.264583px;stroke-linecap:butt;stroke-linejoin:miter;stroke-opacity:1"
           d="m 94.814408,16.604186 a 28.731474,28.731474 0 0 1 28.731582,28.73158 28.731474,28.731474 0 0 1 -28.731582,28.73158 28.731474,28.731474 0 0 1 -28.73158,-28.73158 28.731474,28.731474 0 0 1 28.73158,-28.73158 z"
           id="path846" /><path
           style="fill:#ffffff;fill-opacity:1;stroke:none;stroke-width:0.264583px;stroke-linecap:butt;stroke-linejoin:miter;stroke-opacity:1"
           d="m 121.42673,8.5860703 c 10.60394,0 17.82493,0.761092 29.46642,4.5439087 9.59897,3.119115 30.1346,13.229646 30.1346,31.537611 0,18.30796 -22.51749,30.201256 -22.51749,30.201256 0,0 1.40313,2.405557 5.81308,7.750947 4.40994,5.34539 8.55245,9.220626 8.55245,9.220626 0,0 -9.21051,-1.091719 -18.57509,-4.409549 -10.35702,-3.66945 -15.10089,-6.815605 -15.10089,-6.815605 0,0 -6.18024,1.336352 -17.00465,1.336352 -10.82442,0 -14.80013,-1.569929 -14.80013,-1.569929 0,0 24.2158,-13.263864 24.05435,-34.243904 -0.13545,-17.602893 -11.48978,-29.006776 -24.58093,-35.979716 0,0 7.95073,-1.5719977 14.55828,-1.5719977 z"
           id="path844" /><path
           style="fill:#ffffff;fill-opacity:1;stroke:none;stroke-width:0.264583px;stroke-linecap:butt;stroke-linejoin:miter;stroke-opacity:1"
           d="m 68.087356,8.5860703 c 6.607548,0 14.558285,1.5719977 14.558285,1.5719977 -13.091146,6.97294 -24.445473,18.376818 -24.580929,35.979716 -0.161441,20.98004 24.054347,34.243904 24.054347,34.243904 0,0 -3.975713,1.569929 -14.80013,1.569929 -10.824418,0 -17.004646,-1.336352 -17.004646,-1.336352 0,0 -4.74387,3.146155 -15.100887,6.815605 -9.36458,3.31783 -18.575094,4.409549 -18.575094,4.409549 0,0 4.142505,-3.875236 8.55245,-9.220626 4.409948,-5.34539 5.813081,-7.750947 5.813081,-7.750947 0,0 -22.517488,-11.893296 -22.517488,-30.201256 0,-18.307965 20.535629,-28.418496 30.134593,-31.537611 C 50.26243,9.3471623 57.483417,8.5860703 68.087356,8.5860703 Z"
           id="path842" /><path
           style="fill:#ffffff;fill-opacity:1;stroke:none;stroke-width:0.259076px;stroke-linecap:butt;stroke-linejoin:miter;stroke-opacity:1"
           d="m 104.34609,93.912129 c 0,0 -3.06892,2.64576 -8.051995,3.047359 -4.98308,0.4016 -10.555144,-0.850079 -10.555144,-0.850079 l 0.09067,-1.39371 c 0,0 4.914772,1.34627 9.694004,1.27537 4.779225,-0.0709 8.822465,-2.07894 8.822465,-2.07894 z"
           id="path858" /><path
           style="fill:#ffffff;fill-opacity:1;stroke:none;stroke-width:0.259076px;stroke-linecap:butt;stroke-linejoin:miter;stroke-opacity:1"
           d="m 104.31388,89.736159 c 0,0 -3.06892,2.64576 -8.051985,3.04736 -4.98308,0.40159 -10.555152,-0.8506 -10.555152,-0.8506 l 0.09067,-1.39371 c 0,0 4.915269,1.34679 9.694502,1.27589 4.779225,-0.0709 8.821965,-2.07894 8.821965,-2.07894 z"
           id="path856" /><path
           style="fill:#ffffff;fill-opacity:1;stroke:none;stroke-width:0.259076px;stroke-linecap:butt;stroke-linejoin:miter;stroke-opacity:1"
           d="m 104.31388,85.526589 c 0,0 -3.06892,2.64576 -8.051985,3.04736 -4.98308,0.4016 -10.555152,-0.85007 -10.555152,-0.85007 l 0.09067,-1.39423 c 0,0 4.915269,1.34679 9.694502,1.27589 4.779225,-0.0709 8.821965,-2.07895 8.821965,-2.07895 z"
           id="path854" /><path
           style="fill:#ffffff;fill-opacity:1;stroke:none;stroke-width:0.259076px;stroke-linecap:butt;stroke-linejoin:miter;stroke-opacity:1"
           d="m 104.36938,81.212649 c 0,0 -3.06892,2.64627 -8.051995,3.04787 -4.98308,0.4016 -10.555149,-0.85059 -10.555149,-0.85059 l 0.09068,-1.39372 c 0,0 4.914776,1.34628 9.693999,1.27538 4.779225,-0.0709 8.822465,-2.07894 8.822465,-2.07894 z"
           id="path852" /><path
           style="fill:#000000;fill-opacity:1;stroke:none;stroke-width:0.264583px;stroke-linecap:butt;stroke-linejoin:miter;stroke-opacity:1"
           d="m 94.699685,51.966886 a 6.898065,6.898065 0 0 0 -6.854878,6.898285 6.898065,6.898065 0 0 0 6.897769,6.897772 6.898065,6.898065 0 0 0 6.898284,-6.897772 6.898065,6.898065 0 0 0 -6.898284,-6.898285 6.898065,6.898065 0 0 0 -0.04289,0 z"
           id="path850" /><path
           style="fill:#000000;fill-opacity:1;stroke:none;stroke-width:0.264583px;stroke-linecap:butt;stroke-linejoin:miter;stroke-opacity:1"
           d="m 95.048501,24.650207 c -6.013559,0 -13.363525,3.738211 -13.363525,13.970206 h 9.989055 c 0,0 -0.0021,-1.599538 0.310058,-2.210718 0.31247,-0.611179 0.925967,-1.740461 2.362647,-1.740463 1.436669,0 2.806546,0.878041 2.806546,2.414841 0,1.536809 -1.660713,2.755773 -3.073712,3.373954 -1.36226,0.595979 -2.355445,0.851897 -3.792019,2.522325 -1.436574,1.670442 -1.152385,7.834665 -1.152382,7.834665 0,0 2.037488,-1.169437 5.545397,-1.169437 3.507906,0 5.278746,1.236101 5.278746,1.236101 0,0 -0.10014,-2.054661 0.300758,-2.722832 1.42228,-2.37046 7.58351,-2.18513 7.58351,-10.907861 0,-8.084904 -6.78151,-12.600781 -12.795079,-12.600781 z"
           id="path848" /></g><text
         xml:space="preserve"
         style="font-style:normal;font-variant:normal;font-weight:bold;font-stretch:normal;font-size:3.11485px;line-height:1.25;font-family:Montserrat;-inkscape-font-specification:'Montserrat, Bold';font-variant-ligatures:normal;font-variant-caps:normal;font-variant-numeric:normal;font-variant-east-asian:normal;stroke-width:0.212369"
         x="8.3701773"
         y="31.504189"
         id="text24540"><tspan
           sodipodi:role="line"
           id="tspan24538"
           style="font-style:normal;font-variant:normal;font-weight:bold;font-stretch:normal;font-size:3.11485px;font-family:Montserrat;-inkscape-font-specification:'Montserrat, Bold';font-variant-ligatures:normal;font-variant-caps:normal;font-variant-numeric:normal;font-variant-east-asian:normal;stroke-width:0.212369"
           x="8.3701773"
           y="31.504189">STREET EPISTEMOLOGY</tspan></text></g><text
       xml:space="preserve"
       style="font-style:normal;font-variant:normal;font-weight:normal;font-stretch:normal;font-size:3.175px;line-height:1.25;font-family:sans-serif;-inkscape-font-specification:'sans-serif, Normal';font-variant-ligatures:normal;font-variant-caps:normal;font-variant-numeric:normal;font-variant-east-asian:normal;stroke-width:0.264583"
       x="7.4074254"
       y="94.486427"
       id="text668"><tspan
         sodipodi:role="line"
         id="tspan666"
         style="font-style:normal;font-variant:normal;font-weight:normal;font-stretch:normal;font-size:3.175px;font-family:sans-serif;-inkscape-font-specification:'sans-serif, Normal';font-variant-ligatures:normal;font-variant-caps:normal;font-variant-numeric:normal;font-variant-east-asian:normal;stroke-width:0.264583"
         x="7.4074254"
         y="94.486427">Page size: 55.0x85.0 mm</tspan></text><g
       id="g294"
       transform="matrix(0.75017706,0,0,0.75017706,11.24217,20.485481)"><circle
         fill="#ffffff"
         cx="43.983173"
         cy="81.004089"
         r="0.90953124"
         id="circle255"
         style="stroke-width:0.03125" /><path
         d="m 43.998769,79.999999 c 0.279718,0 0.516593,0.09703 0.710687,0.291094 0.194,0.192875 0.291094,0.429156 0.291094,0.708906 0,0.279813 -0.09528,0.514281 -0.285781,0.703563 -0.201157,0.197625 -0.439875,0.296437 -0.716,0.296437 -0.270282,0 -0.504782,-0.09822 -0.703563,-0.294656 C 43.0988,81.508937 43.00055,81.273874 43.00055,81.00003 c 0,-0.272594 0.09825,-0.508906 0.294656,-0.708906 0.194031,-0.194094 0.428563,-0.291125 0.703563,-0.291125 z m 0.0036,0.180375 c -0.227375,0 -0.419625,0.08038 -0.576781,0.241094 -0.163125,0.1655 -0.244656,0.358344 -0.244656,0.578531 0,0.222656 0.08094,0.414281 0.242812,0.575 0.161906,0.161937 0.35475,0.242844 0.578563,0.242844 0.222593,0 0.416687,-0.08153 0.582156,-0.244625 0.157156,-0.152375 0.235719,-0.343438 0.235719,-0.573219 0,-0.228531 -0.07978,-0.421406 -0.23925,-0.578531 -0.158344,-0.160781 -0.351219,-0.241094 -0.578563,-0.241094 z m -0.446437,0.678531 c 0.01903,-0.122625 0.06841,-0.217562 0.148187,-0.284812 0.07975,-0.06725 0.17675,-0.100875 0.291063,-0.100875 0.157093,0 0.282156,0.05062 0.375,0.15175 0.09284,0.101187 0.139281,0.230968 0.139281,0.389281 0,0.153594 -0.04822,0.28125 -0.144594,0.383 -0.0965,0.10175 -0.221437,0.152687 -0.375062,0.152687 -0.113094,0 -0.210719,-0.03391 -0.292844,-0.101781 -0.08216,-0.06788 -0.131531,-0.164281 -0.148219,-0.289281 h 0.251844 c 0.0059,0.121437 0.07916,0.182156 0.219656,0.182156 0.07019,0 0.126781,-0.03038 0.169625,-0.09106 0.04291,-0.06069 0.06434,-0.141688 0.06434,-0.242844 0,-0.105969 -0.01966,-0.186594 -0.05891,-0.241969 -0.03931,-0.05534 -0.09581,-0.08303 -0.169688,-0.08303 -0.133375,0 -0.208344,0.05891 -0.225,0.17675 h 0.07322 l -0.198188,0.198219 -0.198218,-0.198219 z"
         id="path257"
         style="stroke-width:0.03125" /><circle
         fill="#ffffff"
         cx="38.587482"
         cy="81.000061"
         r="0.90112501"
         id="circle272"
         style="stroke-width:0.03125" /><path
         d="m 38.576734,80.000031 c 0.279719,0 0.517875,0.09766 0.714281,0.292875 0.094,0.09403 0.165469,0.2015 0.214282,0.322313 0.04878,0.120843 0.07325,0.249093 0.07325,0.384812 0,0.136906 -0.02416,0.265188 -0.07231,0.384781 -0.04822,0.119625 -0.119375,0.225313 -0.213375,0.316969 -0.09759,0.09641 -0.208312,0.17025 -0.332156,0.221438 C 38.836922,81.974406 38.708922,82 38.576797,82 c -0.132125,0 -0.258625,-0.02525 -0.379469,-0.07591 -0.120813,-0.05056 -0.229156,-0.123782 -0.325,-0.219594 -0.09584,-0.09581 -0.16875,-0.203875 -0.21875,-0.324125 -0.05,-0.12025 -0.075,-0.247 -0.075,-0.380344 0,-0.132156 0.02528,-0.259219 0.07587,-0.38125 0.05059,-0.122031 0.124125,-0.23125 0.220531,-0.327687 0.190469,-0.194 0.424375,-0.291063 0.70175,-0.291063 z m 0.0036,0.180375 c -0.228562,0 -0.420844,0.07978 -0.576812,0.239281 -0.07859,0.07978 -0.139,0.169344 -0.18125,0.26875 -0.04231,0.09941 -0.06341,0.203282 -0.06341,0.311625 0,0.107157 0.02109,0.210438 0.06341,0.309782 0.04228,0.09947 0.102656,0.188156 0.18125,0.266125 0.07856,0.078 0.167219,0.137468 0.266094,0.178593 0.09878,0.04106 0.202374,0.06159 0.310718,0.06159 0.107125,0 0.210938,-0.02078 0.311656,-0.06247 0.100594,-0.04172 0.191282,-0.101781 0.272282,-0.180343 0.155937,-0.152376 0.233875,-0.343438 0.233875,-0.57325 0,-0.110719 -0.02025,-0.215469 -0.06072,-0.314282 -0.04041,-0.09881 -0.09937,-0.186875 -0.176687,-0.264312 -0.160813,-0.160719 -0.354219,-0.241094 -0.580407,-0.241094 z m -0.01253,0.653594 -0.133969,0.06966 c -0.01431,-0.02972 -0.03184,-0.05059 -0.05266,-0.0625 -0.02084,-0.01188 -0.04019,-0.01784 -0.05806,-0.01784 -0.08925,0 -0.133937,0.05891 -0.133937,0.176782 0,0.05356 0.01131,0.09637 0.03391,0.128531 0.02262,0.03216 0.05597,0.04825 0.100031,0.04825 0.05834,0 0.09941,-0.02859 0.12325,-0.08572 l 0.123188,0.0625 c -0.02619,0.04884 -0.0625,0.08722 -0.108937,0.115188 -0.04638,0.028 -0.09759,0.04197 -0.153563,0.04197 -0.08928,0 -0.161344,-0.02734 -0.216094,-0.08216 -0.05475,-0.05475 -0.08212,-0.130937 -0.08212,-0.228531 0,-0.09525 0.02769,-0.170813 0.08303,-0.226781 0.05534,-0.05594 0.125282,-0.08394 0.209844,-0.08394 0.123844,-6.2e-5 0.2125,0.04816 0.266094,0.144594 z m 0.576781,0 -0.132156,0.06966 c -0.01428,-0.02972 -0.03187,-0.05059 -0.05269,-0.0625 -0.02088,-0.01188 -0.04084,-0.01784 -0.05981,-0.01784 -0.08928,0 -0.133969,0.05891 -0.133969,0.176782 0,0.05356 0.01134,0.09637 0.03394,0.128531 0.02259,0.03216 0.05591,0.04825 0.100031,0.04825 0.05828,0 0.09938,-0.02859 0.123156,-0.08572 l 0.125,0.0625 c -0.02734,0.04884 -0.06428,0.08722 -0.110656,0.115188 -0.04644,0.028 -0.09703,0.04197 -0.151781,0.04197 -0.0905,0 -0.162782,-0.02734 -0.216907,-0.08216 -0.05425,-0.05475 -0.08131,-0.130937 -0.08131,-0.228531 0,-0.09525 0.02766,-0.170813 0.08306,-0.226781 0.05531,-0.05594 0.125251,-0.08394 0.209782,-0.08394 0.123812,-6.2e-5 0.211969,0.04816 0.264312,0.144594 z"
         id="path274"
         style="stroke-width:0.03125" /><circle
         fill="#ffffff"
         cx="41.293831"
         cy="81.00956"
         r="0.88362497"
         id="circle286"
         style="stroke-width:0.03125" /><path
         d="m 41.287767,79.999999 c 0.280875,0 0.517812,0.09641 0.710687,0.289281 0.194,0.194063 0.291094,0.430969 0.291094,0.710719 0,0.280969 -0.09528,0.514875 -0.285781,0.70175 -0.202375,0.198844 -0.441031,0.29825 -0.716,0.29825 -0.270281,0 -0.504781,-0.09825 -0.703563,-0.294687 -0.196406,-0.196438 -0.294656,-0.4315 -0.294656,-0.705313 0,-0.273781 0.09825,-0.510688 0.294656,-0.710688 0.192875,-0.192906 0.427344,-0.289312 0.703563,-0.289312 z m 0.0036,0.180375 c -0.227375,0 -0.419625,0.07978 -0.576781,0.239281 -0.163125,0.166688 -0.244656,0.360157 -0.244656,0.580375 0,0.221438 0.08094,0.413125 0.242812,0.574938 0.161907,0.161937 0.35475,0.242844 0.578563,0.242844 0.222593,0 0.416687,-0.08147 0.582156,-0.244625 0.157156,-0.151188 0.235719,-0.342251 0.235719,-0.573219 0,-0.227375 -0.07978,-0.420781 -0.23925,-0.580344 -0.1595,-0.1595 -0.352375,-0.23925 -0.578563,-0.23925 z m 0.267875,0.571406 v 0.408906 h -0.11425 v 0.485688 h -0.31075 v -0.485656 h -0.11425 V 80.75178 c 0,-0.01788 0.0063,-0.03303 0.01872,-0.04553 0.01253,-0.01247 0.02772,-0.01875 0.04553,-0.01875 h 0.41075 c 0.01666,0 0.03156,0.0062 0.04463,0.01875 0.01303,0.0125 0.01962,0.02769 0.01962,0.04553 z m -0.408969,-0.257125 c 0,-0.094 0.04641,-0.141062 0.139313,-0.141062 0.09291,0 0.139281,0.047 0.139281,0.141062 0,0.09284 -0.04644,0.139282 -0.139281,0.139282 -0.09284,0 -0.139313,-0.04644 -0.139313,-0.139282 z"
         id="path288"
         style="stroke-width:0.03125" /></g><text
       xml:space="preserve"
       style="font-style:normal;font-variant:normal;font-weight:200;font-stretch:normal;font-size:2.13675px;line-height:1.25em;font-family:Montserrat;-inkscape-font-specification:'Montserrat, Ultra-Light';font-variant-ligatures:normal;font-variant-caps:normal;font-variant-numeric:normal;font-variant-east-asian:normal;stroke-width:0.267093"
       x="38.923622"
       y="81.997856"
       id="text9186"><tspan
         sodipodi:role="line"
         id="tspan9184"
         style="font-style:normal;font-variant:normal;font-weight:200;font-stretch:normal;font-size:2.13675px;font-family:Montserrat;-inkscape-font-specification:'Montserrat, Ultra-Light';font-variant-ligatures:normal;font-variant-caps:normal;font-variant-numeric:normal;font-variant-east-asian:normal;text-align:end;text-anchor:end;stroke-width:0.267093"
         x="38.923622"
         y="81.997856">v%VERSION%</tspan></text></g><metadata
     id="metadata34740"><rdf:RDF><cc:Work
         rdf:about=""><cc:license
           rdf:resource="http://creativecommons.org/licenses/by-sa/4.0/" /><dc:title>Street Epistemology reminder</dc:title><dc:date>2021-09-13</dc:date><dc:creator><cc:Agent><dc:title>Salve J. Nilsen</dc:title></cc:Agent></dc:creator><dc:source>https://github.com/sjn/introducing-se/</dc:source><dc:format>image/svg+xml</dc:format><dc:type
           rdf:resource="http://purl.org/dc/dcmitype/StillImage" /></cc:Work><cc:License
         rdf:about="http://creativecommons.org/licenses/by-sa/4.0/"><cc:permits
           rdf:resource="http://creativecommons.org/ns#Reproduction" /><cc:permits
           rdf:resource="http://creativecommons.org/ns#Distribution" /><cc:requires
           rdf:resource="http://creativecommons.org/ns#Notice" /><cc:requires
           rdf:resource="http://creativecommons.org/ns#Attribution" /><cc:permits
           rdf:resource="http://creativecommons.org/ns#DerivativeWorks" /><cc:requires
           rdf:resource="http://creativecommons.org/ns#ShareAlike" /></cc:License></rdf:RDF></metadata><g
     inkscape:groupmode="layer"
     inkscape:label="Printing Marks"
     id="printing-marks"
     sodipodi:insensitive="true"><g
       id="CropMarks"
       inkscape:label="CropMarks"><path
         style="fill:none;stroke:#000000;stroke-width:0.25"
         id="cropTL1"
         d="M -1.9073486e-06,-1.9999959970674237 L -1.9073486e-06,-11.999995055891043" /><path
         style="fill:none;stroke:#000000;stroke-width:0.25"
         id="cropTL2"
         d="M -2.0000017191133237,3.8146973e-06 L -12.000000777936943,3.8146973e-06" /><path
         style="fill:none;stroke:#000000;stroke-width:0.25"
         id="cropTR1"
         d="M 54.9999980926514,-1.9999959970674237 L 54.9999980926514,-11.999995055891043" /><path
         style="fill:none;stroke:#000000;stroke-width:0.25"
         id="cropTR2"
         d="M 56.99999790441613,3.8146973e-06 L 66.99999696323974,3.8146973e-06" /><path
         style="fill:none;stroke:#000000;stroke-width:0.25"
         id="cropBL1"
         d="M -1.9073486e-06,87.00000362646202 L -1.9073486e-06,97.00000268528564" /><path
         style="fill:none;stroke:#000000;stroke-width:0.25"
         id="cropBL2"
         d="M -2.0000017191133237,85.0000038146973 L -12.000000777936943,85.0000038146973" /><path
         style="fill:none;stroke:#000000;stroke-width:0.25"
         id="cropBR1"
         d="M 54.9999980926514,87.00000362646202 L 54.9999980926514,97.00000268528564" /><path
         style="fill:none;stroke:#000000;stroke-width:0.25"
         id="cropBR2"
         d="M 56.99999790441613,85.0000038146973 L 66.99999696323974,85.0000038146973" /></g><g
       inkscape:label="BleedMarks"
       id="BleedMarks"><path
         style="fill:none;stroke:#000000;stroke-dasharray:4, 2, 1, 2;stroke-dashoffset:0;stroke-miterlimit:4;stroke-width:0.25"
         id="bleedTL1"
         d="M -3.0000016249956856,-2.9999959029497854 L -3.0000016249956856,-12.999994961773403" /><path
         style="fill:none;stroke:#000000;stroke-dasharray:4, 2, 1, 2;stroke-dashoffset:0;stroke-miterlimit:4;stroke-width:0.25"
         id="bleedTL2"
         d="M -3.0000016249956856,-2.999995902949786 L -13.000000683819305,-2.999995902949786" /><path
         style="fill:none;stroke:#000000;stroke-dasharray:4, 2, 1, 2;stroke-dashoffset:0;stroke-miterlimit:4;stroke-width:0.25"
         id="bleedTR1"
         d="M 57.99999781029849,-2.9999959029497854 L 57.99999781029849,-12.999994961773403" /><path
         style="fill:none;stroke:#000000;stroke-dasharray:4, 2, 1, 2;stroke-dashoffset:0;stroke-miterlimit:4;stroke-width:0.25"
         id="bleedTR2"
         d="M 57.99999781029849,-2.999995902949786 L 67.9999968691221,-2.999995902949786" /><path
         style="fill:none;stroke:#000000;stroke-dasharray:4, 2, 1, 2;stroke-dashoffset:0;stroke-miterlimit:4;stroke-width:0.25"
         id="bleedBL1"
         d="M -3.0000016249956856,88.00000353234438 L -3.0000016249956856,98.000002591168" /><path
         style="fill:none;stroke:#000000;stroke-dasharray:4, 2, 1, 2;stroke-dashoffset:0;stroke-miterlimit:4;stroke-width:0.25"
         id="bleedBL2"
         d="M -3.0000016249956856,88.00000353234438 L -13.000000683819305,88.00000353234438" /><path
         style="fill:none;stroke:#000000;stroke-dasharray:4, 2, 1, 2;stroke-dashoffset:0;stroke-miterlimit:4;stroke-width:0.25"
         id="bleedBR1"
         d="M 57.99999781029849,88.00000353234438 L 57.99999781029849,98.000002591168" /><path
         style="fill:none;stroke:#000000;stroke-dasharray:4, 2, 1, 2;stroke-dashoffset:0;stroke-miterlimit:4;stroke-width:0.25"
         id="bleedBR2"
         d="M 57.99999781029849,88.00000353234438 L 67.9999968691221,88.00000353234438" /></g></g></svg>
