<?xml version="1.0" encoding="UTF-8" standalone="no"?>
<svg
   version="1.0"
   viewBox="0 0 100 100"
   enable-background="new 0 0 100 100"
   xml:space="preserve"
   id="svg2122"
   sodipodi:docname="share-this-card-qr-bit.ly_3y3kiie-2.svg"
   inkscape:version="1.1.2 (0a00cf5339, 2022-02-04)"
   inkscape:export-filename="/home/sjn/src/introducing-se/dist/media/share-this-card-qr.png"
   inkscape:export-xdpi="192"
   inkscape:export-ydpi="192"
   xmlns:inkscape="http://www.inkscape.org/namespaces/inkscape"
   xmlns:sodipodi="http://sodipodi.sourceforge.net/DTD/sodipodi-0.dtd"
   xmlns:xlink="http://www.w3.org/1999/xlink"
   xmlns="http://www.w3.org/2000/svg"
   xmlns:svg="http://www.w3.org/2000/svg"
   xmlns:rdf="http://www.w3.org/1999/02/22-rdf-syntax-ns#"
   xmlns:cc="http://creativecommons.org/ns#"
   xmlns:dc="http://purl.org/dc/elements/1.1/"><metadata
   id="metadata2128"><rdf:RDF><cc:Work
       rdf:about=""><dc:format>image/svg+xml</dc:format><dc:type
         rdf:resource="http://purl.org/dc/dcmitype/StillImage" /></cc:Work></rdf:RDF></metadata><defs
   id="defs2126"><defs
   id="defs1512" />









	

		
		
	
			
			
			
			
		
			
			
		</defs><sodipodi:namedview
   pagecolor="#ffffff"
   bordercolor="#666666"
   borderopacity="1"
   objecttolerance="10"
   gridtolerance="10"
   guidetolerance="10"
   inkscape:pageopacity="0"
   inkscape:pageshadow="2"
   inkscape:window-width="1852"
   inkscape:window-height="1016"
   id="namedview2124"
   showgrid="false"
   inkscape:snap-text-baseline="false"
   showguides="true"
   inkscape:guide-bbox="true"
   inkscape:zoom="6.3729993"
   inkscape:cx="33.89299"
   inkscape:cy="55.076109"
   inkscape:window-x="68"
   inkscape:window-y="27"
   inkscape:window-maximized="1"
   inkscape:current-layer="svg2122"
   inkscape:document-rotation="0"
   inkscape:showpageshadow="false"
   inkscape:pagecheckerboard="0"
   inkscape:deskcolor="#d1d1d1" />
	


<rect
   style="fill:#ffffff;stroke:none;stroke-width:1.07463;stroke-linecap:round;stroke-linejoin:round;stroke-opacity:0.616936;paint-order:markers stroke fill"
   id="rect1590"
   width="30.22534"
   height="30.22534"
   x="34.887337"
   y="34.887337"
   ry="0.20773329" /><image
   width="100"
   height="100"
   preserveAspectRatio="none"
   style="image-rendering:optimizeQuality"
   xlink:href="share-this-card-qr-bit.ly_3y3kiie.png"
   id="image396"
   x="0"
   y="-0.0043649673" /><g
   id="g10311"
   transform="translate(0,-0.00436597)"><g
     id="g10299"><path
       d="m 39.721097,46.161781 q -0.703441,0 -1.363459,-0.199743 -0.651334,-0.199742 -1.03345,-0.529751 l 0.390801,-0.877129 q 0.373431,0.295271 0.911867,0.486329 0.54712,0.182373 1.094241,0.182373 0.677387,0 1.007396,-0.217111 0.338693,-0.217111 0.338693,-0.573174 0,-0.260533 -0.191058,-0.425538 -0.182373,-0.173689 -0.46896,-0.269218 -0.286587,-0.09553 -0.7816,-0.217111 -0.694756,-0.165005 -1.128979,-0.330009 -0.425538,-0.165005 -0.738178,-0.512383 -0.303956,-0.356062 -0.303956,-0.955289 0,-0.503698 0.269218,-0.911867 0.277902,-0.416854 0.825023,-0.660019 0.555805,-0.243164 1.354774,-0.243164 0.555805,0 1.094241,0.138951 0.538436,0.138951 0.929236,0.399485 l -0.356063,0.877129 q -0.399484,-0.23448 -0.833707,-0.356062 -0.434222,-0.121583 -0.842391,-0.121583 -0.668703,0 -0.998712,0.225796 -0.321325,0.225796 -0.321325,0.599227 0,0.260534 0.182374,0.425538 0.191057,0.165005 0.477644,0.260534 0.286587,0.09553 0.781601,0.217111 0.677387,0.15632 1.111609,0.330009 0.434223,0.165005 0.738179,0.512383 0.31264,0.347378 0.31264,0.93792 0,0.503698 -0.277902,0.911867 -0.269218,0.40817 -0.825023,0.651334 -0.555805,0.243165 -1.354774,0.243165 z"
       style="font-style:normal;font-variant:normal;font-weight:normal;font-stretch:normal;font-size:8.68445px;line-height:1.25;font-family:'Montserrat SemiBold';-inkscape-font-specification:'Montserrat SemiBold, Normal';font-variant-ligatures:normal;font-variant-caps:normal;font-variant-numeric:normal;font-variant-east-asian:normal;text-align:start;letter-spacing:0px;word-spacing:0px;writing-mode:lr-tb;text-anchor:start;fill:#000000;fill-opacity:1;stroke:none;stroke-width:0.107944"
       id="path1723" /><path
       d="m 45.826263,41.385333 q 0.877129,0 1.406881,0.512383 0.529751,0.512382 0.529751,1.519779 v 2.657441 h -1.085556 v -2.51849 q 0,-0.607912 -0.286587,-0.911868 -0.286587,-0.31264 -0.816338,-0.31264 -0.599228,0 -0.946606,0.364747 -0.347378,0.356063 -0.347378,1.03345 v 2.344801 h -1.085556 v -6.443862 h 1.085556 v 2.344802 q 0.269218,-0.286587 0.660019,-0.434223 0.399484,-0.15632 0.885814,-0.15632 z"
       style="font-style:normal;font-variant:normal;font-weight:normal;font-stretch:normal;font-size:8.68445px;line-height:1.25;font-family:'Montserrat SemiBold';-inkscape-font-specification:'Montserrat SemiBold, Normal';font-variant-ligatures:normal;font-variant-caps:normal;font-variant-numeric:normal;font-variant-east-asian:normal;text-align:start;letter-spacing:0px;word-spacing:0px;writing-mode:lr-tb;text-anchor:start;fill:#000000;fill-opacity:1;stroke:none;stroke-width:0.107944"
       id="path1725" /><path
       d="m 50.915345,41.385333 q 1.024765,0 1.563201,0.495014 0.54712,0.486329 0.54712,1.476356 v 2.718233 h -1.024765 v -0.564489 q -0.199742,0.303956 -0.573173,0.46896 -0.364747,0.15632 -0.885814,0.15632 -0.521067,0 -0.911868,-0.173689 -0.3908,-0.182373 -0.607911,-0.495013 -0.208427,-0.321325 -0.208427,-0.72081 0,-0.62528 0.460276,-0.998711 0.46896,-0.382116 1.467672,-0.382116 h 1.198454 v -0.06948 q 0,-0.486329 -0.295271,-0.746862 -0.286587,-0.260534 -0.859761,-0.260534 -0.3908,0 -0.772916,0.121582 -0.373431,0.121583 -0.633965,0.338694 l -0.425538,-0.790285 q 0.364747,-0.277902 0.87713,-0.425538 0.512382,-0.147636 1.085556,-0.147636 z m -0.147636,3.960109 q 0.40817,0 0.72081,-0.182373 0.321324,-0.191058 0.451591,-0.538436 v -0.538436 h -1.120294 q -0.937921,0 -0.937921,0.616596 0,0.295271 0.234481,0.46896 0.23448,0.173689 0.651333,0.173689 z"
       style="font-style:normal;font-variant:normal;font-weight:normal;font-stretch:normal;font-size:8.68445px;line-height:1.25;font-family:'Montserrat SemiBold';-inkscape-font-specification:'Montserrat SemiBold, Normal';font-variant-ligatures:normal;font-variant-caps:normal;font-variant-numeric:normal;font-variant-east-asian:normal;text-align:start;letter-spacing:0px;word-spacing:0px;writing-mode:lr-tb;text-anchor:start;fill:#000000;fill-opacity:1;stroke:none;stroke-width:0.107944"
       id="path1727" /><path
       d="m 55.448615,42.114827 q 0.46896,-0.729494 1.650045,-0.729494 v 1.03345 q -0.138951,-0.02605 -0.251849,-0.02605 -0.633964,0 -0.990027,0.373432 -0.356062,0.364747 -0.356062,1.059503 v 2.249272 h -1.085557 v -4.637496 h 1.03345 z"
       style="font-style:normal;font-variant:normal;font-weight:normal;font-stretch:normal;font-size:8.68445px;line-height:1.25;font-family:'Montserrat SemiBold';-inkscape-font-specification:'Montserrat SemiBold, Normal';font-variant-ligatures:normal;font-variant-caps:normal;font-variant-numeric:normal;font-variant-east-asian:normal;text-align:start;letter-spacing:0px;word-spacing:0px;writing-mode:lr-tb;text-anchor:start;fill:#000000;fill-opacity:1;stroke:none;stroke-width:0.107944"
       id="path1729" /><path
       d="m 62.335365,43.782241 q 0,0.112898 -0.01737,0.321325 h -3.638784 q 0.09553,0.512383 0.495013,0.816338 0.40817,0.295272 1.007397,0.295272 0.764231,0 1.259245,-0.503698 l 0.581858,0.668702 q -0.31264,0.373432 -0.790285,0.56449 -0.477645,0.191057 -1.076872,0.191057 -0.764231,0 -1.346089,-0.303955 -0.581859,-0.303956 -0.903183,-0.842392 -0.31264,-0.54712 -0.31264,-1.233192 0,-0.677387 0.303955,-1.215823 0.312641,-0.54712 0.859761,-0.851076 0.54712,-0.303956 1.233192,-0.303956 0.677387,0 1.207138,0.303956 0.538436,0.295271 0.833708,0.842392 0.303955,0.538436 0.303956,1.25056 z m -2.344801,-1.528463 q -0.521067,0 -0.885814,0.31264 -0.356063,0.303956 -0.434223,0.816339 h 2.631389 q -0.06948,-0.503698 -0.425538,-0.816339 -0.356063,-0.31264 -0.885814,-0.31264 z"
       style="font-style:normal;font-variant:normal;font-weight:normal;font-stretch:normal;font-size:8.68445px;line-height:1.25;font-family:'Montserrat SemiBold';-inkscape-font-specification:'Montserrat SemiBold, Normal';font-variant-ligatures:normal;font-variant-caps:normal;font-variant-numeric:normal;font-variant-east-asian:normal;text-align:start;letter-spacing:0px;word-spacing:0px;writing-mode:lr-tb;text-anchor:start;fill:#000000;fill-opacity:1;stroke:none;stroke-width:0.107944"
       id="path1731" /></g><g
     aria-label="me!"
     id="text2061"
     style="font-weight:500;font-size:85.687px;line-height:1.25;font-family:Hind;-inkscape-font-specification:'Hind, Medium';letter-spacing:0px;word-spacing:0px;stroke-width:1.06505"><path
       d="m 39.040211,51.592916 v 1.380304 q 0.732754,-1.49959 2.436834,-1.49959 1.942651,0 2.487957,1.669998 0.357857,-0.800917 1.039489,-1.226937 0.681632,-0.443061 1.533672,-0.443061 1.329182,0 2.010814,0.783877 0.698673,0.783877 0.698673,2.164181 v 5.810913 h -1.669999 v -5.453056 q 0,-1.857447 -1.49959,-1.857447 -0.749795,0 -1.346223,0.664591 -0.579387,0.664591 -0.579387,1.959692 v 4.68622 h -1.669999 v -5.453056 q 0,-1.857447 -1.516631,-1.857447 -0.732754,0 -1.329182,0.664591 -0.596428,0.664591 -0.596428,1.959692 v 4.68622 h -1.669999 v -8.639685 z"
       style="font-size:17.0408px"
       id="path10269" /><path
       d="m 55.433459,60.317805 q -2.010814,0 -3.20367,-1.209897 -1.192856,-1.209896 -1.192856,-3.220711 0,-2.027855 1.090611,-3.20367 1.090611,-1.192856 2.760609,-1.192856 1.669999,0 2.641324,1.039489 0.971326,1.022448 0.971326,2.965099 0,0.528265 -0.102245,1.107652 h -5.674586 q 0.170408,1.124693 0.954285,1.721121 0.783876,0.596428 2.061936,0.596428 1.295101,0 2.215304,-0.647551 V 59.7725 q -0.954284,0.545305 -2.522038,0.545305 z m 1.448468,-5.027036 v -0.306734 q -0.03408,-0.971326 -0.528265,-1.533672 -0.494183,-0.579387 -1.380305,-0.579387 -0.886121,0 -1.49959,0.630509 -0.613469,0.613469 -0.766836,1.789284 z"
       style="font-size:17.0408px"
       id="path10271" /><path
       d="m 60.664978,60.045152 q -0.323775,-0.340816 -0.323775,-0.834999 0,-0.494183 0.323775,-0.834999 0.340817,-0.340816 0.817959,-0.340816 0.494183,0 0.834999,0.357857 0.357857,0.340816 0.357857,0.834999 0,0.477142 -0.340816,0.817958 -0.340816,0.323776 -0.834999,0.323776 -0.494183,0 -0.835,-0.323776 z m 0.03408,-3.459282 v -7.838768 h 1.635917 v 7.838768 z"
       style="font-size:17.0408px"
       id="path10273" /></g></g></svg>
